<?xml version="1.0" encoding="UTF-8" standalone="no"?>
<!-- Created with Inkscape (http://www.inkscape.org/) -->

<svg
   width="1024"
   height="1024"
   viewBox="0 0 270.93333 270.93333"
   version="1.1"
   id="svg5"
   xml:space="preserve"
   sodipodi:docname="PS_DestinyManifester.svg"
   inkscape:version="1.2.2 (732a01da63, 2022-12-09)"
   inkscape:export-filename="PS_DestinyManifester.png"
   inkscape:export-xdpi="96"
   inkscape:export-ydpi="96"
   xmlns:inkscape="http://www.inkscape.org/namespaces/inkscape"
   xmlns:sodipodi="http://sodipodi.sourceforge.net/DTD/sodipodi-0.dtd"
   xmlns:xlink="http://www.w3.org/1999/xlink"
   xmlns="http://www.w3.org/2000/svg"
   xmlns:svg="http://www.w3.org/2000/svg"><sodipodi:namedview
     id="namedview7"
     pagecolor="#ffffff"
     bordercolor="#000000"
     borderopacity="0.25"
     inkscape:showpageshadow="2"
     inkscape:pageopacity="0.0"
     inkscape:pagecheckerboard="0"
     inkscape:deskcolor="#d1d1d1"
     inkscape:document-units="mm"
     showgrid="false"
     inkscape:zoom="0.457453"
     inkscape:cx="220.78771"
     inkscape:cy="67.766524"
     inkscape:window-width="2560"
     inkscape:window-height="1369"
     inkscape:window-x="2552"
     inkscape:window-y="-8"
     inkscape:window-maximized="1"
     inkscape:current-layer="layer1" /><defs
     id="defs2"><linearGradient
       inkscape:collect="always"
       id="linearGradient8864"><stop
         style="stop-color:#ffffff;stop-opacity:1;"
         offset="0"
         id="stop8860" /><stop
         style="stop-color:#ffffff;stop-opacity:1;"
         offset="0.5"
         id="stop8868" /><stop
         style="stop-color:#ff0000;stop-opacity:0.9137255;"
         offset="0.5"
         id="stop8870" /><stop
         style="stop-color:#ff0000;stop-opacity:1;"
         offset="1"
         id="stop8862" /></linearGradient><linearGradient
       inkscape:collect="always"
       id="linearGradient1819"><stop
         style="stop-color:#373737;stop-opacity:1;"
         offset="0"
         id="stop1815" /><stop
         style="stop-color:#6e6e6e;stop-opacity:1;"
         offset="0.46357617"
         id="stop1823" /><stop
         style="stop-color:#646464;stop-opacity:1;"
         offset="1"
         id="stop1817" /></linearGradient><linearGradient
       inkscape:collect="always"
       xlink:href="#linearGradient1819"
       id="linearGradient1821"
       x1="106.51141"
       y1="107.42265"
       x2="159.11258"
       y2="165.3335"
       gradientUnits="userSpaceOnUse" /><linearGradient
       inkscape:collect="always"
       xlink:href="#linearGradient8864"
       id="linearGradient8866"
       x1="207.49515"
       y1="83.307838"
       x2="216.17088"
       y2="91.983597"
       gradientUnits="userSpaceOnUse"
       spreadMethod="repeat" /></defs><g
     inkscape:label="Layer 1"
     inkscape:groupmode="layer"
     id="layer1"><path
       style="fill:url(#linearGradient1821);stroke:#000000;stroke-width:6.7;stroke-linecap:round;stroke-linejoin:round;stroke-dasharray:none;stroke-opacity:1;fill-opacity:1"
       d="M 46.559882,166.27077 140.83642,73.729379 c 0,0 19.80963,-19.086659 47.42745,-19.231255 16.28721,-0.08527 28.10897,9.082811 27.90701,22.412366 -0.43379,28.62999 -16.19474,47.86125 -16.19474,47.86125 l -97.89143,97.16845 z"
       id="path356"
       sodipodi:nodetypes="ccssccc" /><g
       id="g6878"
       style="mix-blend-mode:darken"><path
         style="fill:#002664;fill-opacity:1;stroke:none;stroke-width:6.69999;stroke-linecap:round;stroke-linejoin:round;stroke-dasharray:none;stroke-opacity:1"
         d="M 64.263748,148.89274 119.45178,204.50595 195.5892,129.12627 140.83642,73.729378 64.263748,148.89274"
         id="path4975" /><path
         style="fill:url(#linearGradient8866);fill-opacity:1;stroke:none;stroke-width:6.69999;stroke-linecap:round;stroke-linejoin:round;stroke-dasharray:none;stroke-opacity:1"
         d="m 140.83642,73.729378 54.75278,55.396892 8.89264,-11.07937 9.31693,-22.917231 2.37211,-18.219179 -6.82488,-15.443068 -15.55422,-6.626502 -21.61247,1.856388 -14.04788,5.366075 z"
         id="path5083" /><path
         sodipodi:type="star"
         style="fill:#ffffff;fill-opacity:1;stroke:none;stroke-width:41.1009;stroke-linecap:round;stroke-linejoin:round;stroke-dasharray:none;stroke-opacity:1"
         id="path5885"
         inkscape:flatsided="false"
         sodipodi:sides="5"
         sodipodi:cx="41.354431"
         sodipodi:cy="-7.229795"
         sodipodi:r1="43.77795"
         sodipodi:r2="21.888971"
         sodipodi:arg1="0.8134282"
         sodipodi:arg2="1.4417467"
         inkscape:rounded="0"
         inkscape:randomized="0"
         d="M 71.430381,24.581306 44.171361,14.477162 20.394256,31.204304 21.580368,2.1570828 -1.6756198,-15.287316 l 27.9920778,-7.848026 9.404114,-27.508374 16.113944,24.196874 29.06805,0.443289 -18.033113,22.8025173 z"
         inkscape:transform-center-x="0.28379951"
         inkscape:transform-center-y="-0.40588816"
         transform="matrix(0.16301327,0,0,0.16301327,134.3789,98.159107)" /><path
         sodipodi:type="star"
         style="fill:#ffffff;fill-opacity:1;stroke:none;stroke-width:41.1009;stroke-linecap:round;stroke-linejoin:round;stroke-dasharray:none;stroke-opacity:1"
         id="path5885-8"
         inkscape:flatsided="false"
         sodipodi:sides="5"
         sodipodi:cx="41.354431"
         sodipodi:cy="-7.229795"
         sodipodi:r1="43.77795"
         sodipodi:r2="21.888971"
         sodipodi:arg1="0.8134282"
         sodipodi:arg2="1.4417467"
         inkscape:rounded="0"
         inkscape:randomized="0"
         d="M 71.430381,24.581306 44.171361,14.477162 20.394256,31.204304 21.580368,2.1570828 -1.6756198,-15.287316 l 27.9920778,-7.848026 9.404114,-27.508374 16.113944,24.196874 29.06805,0.443289 -18.033113,22.8025173 z"
         inkscape:transform-center-x="0.28379951"
         inkscape:transform-center-y="-0.40588816"
         transform="matrix(0.16301327,0,0,0.16301327,147.39253,111.50142)" /><path
         sodipodi:type="star"
         style="fill:#ffffff;fill-opacity:1;stroke:none;stroke-width:41.1009;stroke-linecap:round;stroke-linejoin:round;stroke-dasharray:none;stroke-opacity:1"
         id="path5885-5"
         inkscape:flatsided="false"
         sodipodi:sides="5"
         sodipodi:cx="41.354431"
         sodipodi:cy="-7.229795"
         sodipodi:r1="43.77795"
         sodipodi:r2="21.888971"
         sodipodi:arg1="0.8134282"
         sodipodi:arg2="1.4417467"
         inkscape:rounded="0"
         inkscape:randomized="0"
         d="M 71.430381,24.581306 44.171361,14.477162 20.394256,31.204304 21.580368,2.1570828 -1.6756198,-15.287316 l 27.9920778,-7.848026 9.404114,-27.508374 16.113944,24.196874 29.06805,0.443289 -18.033113,22.8025173 z"
         inkscape:transform-center-x="0.28379951"
         inkscape:transform-center-y="-0.40588816"
         transform="matrix(0.16301327,0,0,0.16301327,159.82777,124.03955)" /><path
         sodipodi:type="star"
         style="fill:#ffffff;fill-opacity:1;stroke:none;stroke-width:41.1009;stroke-linecap:round;stroke-linejoin:round;stroke-dasharray:none;stroke-opacity:1"
         id="path5885-1"
         inkscape:flatsided="false"
         sodipodi:sides="5"
         sodipodi:cx="41.354431"
         sodipodi:cy="-7.229795"
         sodipodi:r1="43.77795"
         sodipodi:r2="21.888971"
         sodipodi:arg1="0.8134282"
         sodipodi:arg2="1.4417467"
         inkscape:rounded="0"
         inkscape:randomized="0"
         d="M 71.430381,24.581306 44.171361,14.477162 20.394256,31.204304 21.580368,2.1570828 -1.6756198,-15.287316 l 27.9920778,-7.848026 9.404114,-27.508374 16.113944,24.196874 29.06805,0.443289 -18.033113,22.8025173 z"
         inkscape:transform-center-x="7.8027868"
         inkscape:transform-center-y="-5.6113409"
         transform="matrix(0.16301327,0,0,0.16301327,128.09594,117.36839)" /><path
         sodipodi:type="star"
         style="fill:#ffffff;fill-opacity:1;stroke:none;stroke-width:41.1009;stroke-linecap:round;stroke-linejoin:round;stroke-dasharray:none;stroke-opacity:1"
         id="path5885-8-0"
         inkscape:flatsided="false"
         sodipodi:sides="5"
         sodipodi:cx="41.354431"
         sodipodi:cy="-7.229795"
         sodipodi:r1="43.77795"
         sodipodi:r2="21.888971"
         sodipodi:arg1="0.8134282"
         sodipodi:arg2="1.4417467"
         inkscape:rounded="0"
         inkscape:randomized="0"
         d="M 71.430381,24.581306 44.171361,14.477162 20.394256,31.204304 21.580368,2.1570828 -1.6756198,-15.287316 l 27.9920778,-7.848026 9.404114,-27.508374 16.113944,24.196874 29.06805,0.443289 -18.033113,22.8025173 z"
         inkscape:transform-center-x="-5.2108431"
         inkscape:transform-center-y="7.730979"
         transform="matrix(0.16301327,0,0,0.16301327,141.10957,130.71071)" /><path
         sodipodi:type="star"
         style="fill:#ffffff;fill-opacity:1;stroke:none;stroke-width:41.1009;stroke-linecap:round;stroke-linejoin:round;stroke-dasharray:none;stroke-opacity:1"
         id="path5885-5-7"
         inkscape:flatsided="false"
         sodipodi:sides="5"
         sodipodi:cx="41.354431"
         sodipodi:cy="-7.229795"
         sodipodi:r1="43.77795"
         sodipodi:r2="21.888971"
         sodipodi:arg1="0.8134282"
         sodipodi:arg2="1.4417467"
         inkscape:rounded="0"
         inkscape:randomized="0"
         d="M 71.430381,24.581306 44.171361,14.477162 20.394256,31.204304 21.580368,2.1570828 -1.6756198,-15.287316 l 27.9920778,-7.848026 9.404114,-27.508374 16.113944,24.196874 29.06805,0.443289 -18.033113,22.8025173 z"
         inkscape:transform-center-x="-17.646083"
         inkscape:transform-center-y="20.269109"
         transform="matrix(0.16301327,0,0,0.16301327,153.54481,143.24884)" /><path
         sodipodi:type="star"
         style="fill:#ffffff;fill-opacity:1;stroke:none;stroke-width:41.1009;stroke-linecap:round;stroke-linejoin:round;stroke-dasharray:none;stroke-opacity:1"
         id="path5885-3"
         inkscape:flatsided="false"
         sodipodi:sides="5"
         sodipodi:cx="41.354431"
         sodipodi:cy="-7.229795"
         sodipodi:r1="43.77795"
         sodipodi:r2="21.888971"
         sodipodi:arg1="0.8134282"
         sodipodi:arg2="1.4417467"
         inkscape:rounded="0"
         inkscape:randomized="0"
         d="M 71.430381,24.581306 44.171361,14.477162 20.394256,31.204304 21.580368,2.1570828 -1.6756198,-15.287316 l 27.9920778,-7.848026 9.404114,-27.508374 16.113944,24.196874 29.06805,0.443289 -18.033113,22.8025173 z"
         inkscape:transform-center-x="0.28379951"
         inkscape:transform-center-y="-0.40588816"
         transform="matrix(0.16301327,0,0,0.16301327,108.35164,120.7184)" /><path
         sodipodi:type="star"
         style="fill:#ffffff;fill-opacity:1;stroke:none;stroke-width:41.1009;stroke-linecap:round;stroke-linejoin:round;stroke-dasharray:none;stroke-opacity:1"
         id="path5885-8-7"
         inkscape:flatsided="false"
         sodipodi:sides="5"
         sodipodi:cx="41.354431"
         sodipodi:cy="-7.229795"
         sodipodi:r1="43.77795"
         sodipodi:r2="21.888971"
         sodipodi:arg1="0.8134282"
         sodipodi:arg2="1.4417467"
         inkscape:rounded="0"
         inkscape:randomized="0"
         d="M 71.430381,24.581306 44.171361,14.477162 20.394256,31.204304 21.580368,2.1570828 -1.6756198,-15.287316 l 27.9920778,-7.848026 9.404114,-27.508374 16.113944,24.196874 29.06805,0.443289 -18.033113,22.8025173 z"
         inkscape:transform-center-x="0.28379951"
         inkscape:transform-center-y="-0.40588816"
         transform="matrix(0.16301327,0,0,0.16301327,121.36527,134.06071)" /><path
         sodipodi:type="star"
         style="fill:#ffffff;fill-opacity:1;stroke:none;stroke-width:41.1009;stroke-linecap:round;stroke-linejoin:round;stroke-dasharray:none;stroke-opacity:1"
         id="path5885-5-4"
         inkscape:flatsided="false"
         sodipodi:sides="5"
         sodipodi:cx="41.354431"
         sodipodi:cy="-7.229795"
         sodipodi:r1="43.77795"
         sodipodi:r2="21.888971"
         sodipodi:arg1="0.8134282"
         sodipodi:arg2="1.4417467"
         inkscape:rounded="0"
         inkscape:randomized="0"
         d="M 71.430381,24.581306 44.171361,14.477162 20.394256,31.204304 21.580368,2.1570828 -1.6756198,-15.287316 l 27.9920778,-7.848026 9.404114,-27.508374 16.113944,24.196874 29.06805,0.443289 -18.033113,22.8025173 z"
         inkscape:transform-center-x="0.28379951"
         inkscape:transform-center-y="-0.40588816"
         transform="matrix(0.16301327,0,0,0.16301327,133.80051,146.59884)" /><path
         sodipodi:type="star"
         style="fill:#ffffff;fill-opacity:1;stroke:none;stroke-width:41.1009;stroke-linecap:round;stroke-linejoin:round;stroke-dasharray:none;stroke-opacity:1"
         id="path5885-1-7"
         inkscape:flatsided="false"
         sodipodi:sides="5"
         sodipodi:cx="41.354431"
         sodipodi:cy="-7.229795"
         sodipodi:r1="43.77795"
         sodipodi:r2="21.888971"
         sodipodi:arg1="0.8134282"
         sodipodi:arg2="1.4417467"
         inkscape:rounded="0"
         inkscape:randomized="0"
         d="M 71.430381,24.581306 44.171361,14.477162 20.394256,31.204304 21.580368,2.1570828 -1.6756198,-15.287316 l 27.9920778,-7.848026 9.404114,-27.508374 16.113944,24.196874 29.06805,0.443289 -18.033113,22.8025173 z"
         inkscape:transform-center-x="7.8027868"
         inkscape:transform-center-y="-5.6113409"
         transform="matrix(0.16301327,0,0,0.16301327,102.06868,139.92768)" /><path
         sodipodi:type="star"
         style="fill:#ffffff;fill-opacity:1;stroke:none;stroke-width:41.1009;stroke-linecap:round;stroke-linejoin:round;stroke-dasharray:none;stroke-opacity:1"
         id="path5885-8-0-6"
         inkscape:flatsided="false"
         sodipodi:sides="5"
         sodipodi:cx="41.354431"
         sodipodi:cy="-7.229795"
         sodipodi:r1="43.77795"
         sodipodi:r2="21.888971"
         sodipodi:arg1="0.8134282"
         sodipodi:arg2="1.4417467"
         inkscape:rounded="0"
         inkscape:randomized="0"
         d="M 71.430381,24.581306 44.171361,14.477162 20.394256,31.204304 21.580368,2.1570828 -1.6756198,-15.287316 l 27.9920778,-7.848026 9.404114,-27.508374 16.113944,24.196874 29.06805,0.443289 -18.033113,22.8025173 z"
         inkscape:transform-center-x="-5.2108431"
         inkscape:transform-center-y="7.730979"
         transform="matrix(0.16301327,0,0,0.16301327,115.08231,153.27)" /><path
         sodipodi:type="star"
         style="fill:#ffffff;fill-opacity:1;stroke:none;stroke-width:41.1009;stroke-linecap:round;stroke-linejoin:round;stroke-dasharray:none;stroke-opacity:1"
         id="path5885-5-7-4"
         inkscape:flatsided="false"
         sodipodi:sides="5"
         sodipodi:cx="41.354431"
         sodipodi:cy="-7.229795"
         sodipodi:r1="43.77795"
         sodipodi:r2="21.888971"
         sodipodi:arg1="0.8134282"
         sodipodi:arg2="1.4417467"
         inkscape:rounded="0"
         inkscape:randomized="0"
         d="M 71.430381,24.581306 44.171361,14.477162 20.394256,31.204304 21.580368,2.1570828 -1.6756198,-15.287316 l 27.9920778,-7.848026 9.404114,-27.508374 16.113944,24.196874 29.06805,0.443289 -18.033113,22.8025173 z"
         inkscape:transform-center-x="-17.646083"
         inkscape:transform-center-y="20.269109"
         transform="matrix(0.16301327,0,0,0.16301327,127.51755,165.80813)" /><path
         sodipodi:type="star"
         style="fill:#ffffff;fill-opacity:1;stroke:none;stroke-width:41.1009;stroke-linecap:round;stroke-linejoin:round;stroke-dasharray:none;stroke-opacity:1"
         id="path5885-0"
         inkscape:flatsided="false"
         sodipodi:sides="5"
         sodipodi:cx="41.354431"
         sodipodi:cy="-7.229795"
         sodipodi:r1="43.77795"
         sodipodi:r2="21.888971"
         sodipodi:arg1="0.8134282"
         sodipodi:arg2="1.4417467"
         inkscape:rounded="0"
         inkscape:randomized="0"
         d="M 71.430381,24.581306 44.171361,14.477162 20.394256,31.204304 21.580368,2.1570828 -1.6756198,-15.287316 l 27.9920778,-7.848026 9.404114,-27.508374 16.113944,24.196874 29.06805,0.443289 -18.033113,22.8025173 z"
         inkscape:transform-center-x="0.28379951"
         inkscape:transform-center-y="-0.40588816"
         transform="matrix(0.16301327,0,0,0.16301327,84.598278,145.79466)" /><path
         sodipodi:type="star"
         style="fill:#ffffff;fill-opacity:1;stroke:none;stroke-width:41.1009;stroke-linecap:round;stroke-linejoin:round;stroke-dasharray:none;stroke-opacity:1"
         id="path5885-8-5"
         inkscape:flatsided="false"
         sodipodi:sides="5"
         sodipodi:cx="41.354431"
         sodipodi:cy="-7.229795"
         sodipodi:r1="43.77795"
         sodipodi:r2="21.888971"
         sodipodi:arg1="0.8134282"
         sodipodi:arg2="1.4417467"
         inkscape:rounded="0"
         inkscape:randomized="0"
         d="M 71.430381,24.581306 44.171361,14.477162 20.394256,31.204304 21.580368,2.1570828 -1.6756198,-15.287316 l 27.9920778,-7.848026 9.404114,-27.508374 16.113944,24.196874 29.06805,0.443289 -18.033113,22.8025173 z"
         inkscape:transform-center-x="0.28379951"
         inkscape:transform-center-y="-0.40588816"
         transform="matrix(0.16301327,0,0,0.16301327,97.611908,159.13697)" /><path
         sodipodi:type="star"
         style="fill:#ffffff;fill-opacity:1;stroke:none;stroke-width:41.1009;stroke-linecap:round;stroke-linejoin:round;stroke-dasharray:none;stroke-opacity:1"
         id="path5885-5-47"
         inkscape:flatsided="false"
         sodipodi:sides="5"
         sodipodi:cx="41.354431"
         sodipodi:cy="-7.229795"
         sodipodi:r1="43.77795"
         sodipodi:r2="21.888971"
         sodipodi:arg1="0.8134282"
         sodipodi:arg2="1.4417467"
         inkscape:rounded="0"
         inkscape:randomized="0"
         d="M 71.430381,24.581306 44.171361,14.477162 20.394256,31.204304 21.580368,2.1570828 -1.6756198,-15.287316 l 27.9920778,-7.848026 9.404114,-27.508374 16.113944,24.196874 29.06805,0.443289 -18.033113,22.8025173 z"
         inkscape:transform-center-x="0.28379951"
         inkscape:transform-center-y="-0.40588816"
         transform="matrix(0.16301327,0,0,0.16301327,110.04715,171.6751)" /><path
         sodipodi:type="star"
         style="fill:#ffffff;fill-opacity:1;stroke:none;stroke-width:41.1009;stroke-linecap:round;stroke-linejoin:round;stroke-dasharray:none;stroke-opacity:1"
         id="path5885-1-8"
         inkscape:flatsided="false"
         sodipodi:sides="5"
         sodipodi:cx="41.354431"
         sodipodi:cy="-7.229795"
         sodipodi:r1="43.77795"
         sodipodi:r2="21.888971"
         sodipodi:arg1="0.8134282"
         sodipodi:arg2="1.4417467"
         inkscape:rounded="0"
         inkscape:randomized="0"
         d="M 71.430381,24.581306 44.171361,14.477162 20.394256,31.204304 21.580368,2.1570828 -1.6756198,-15.287316 l 27.9920778,-7.848026 9.404114,-27.508374 16.113944,24.196874 29.06805,0.443289 -18.033113,22.8025173 z"
         inkscape:transform-center-x="7.8027868"
         inkscape:transform-center-y="-5.6113409"
         transform="matrix(0.16301327,0,0,0.16301327,78.315318,163.41338)" /><path
         sodipodi:type="star"
         style="fill:#ffffff;fill-opacity:1;stroke:none;stroke-width:41.1009;stroke-linecap:round;stroke-linejoin:round;stroke-dasharray:none;stroke-opacity:1"
         id="path5885-8-0-3"
         inkscape:flatsided="false"
         sodipodi:sides="5"
         sodipodi:cx="41.354431"
         sodipodi:cy="-7.229795"
         sodipodi:r1="43.77795"
         sodipodi:r2="21.888971"
         sodipodi:arg1="0.8134282"
         sodipodi:arg2="1.4417467"
         inkscape:rounded="0"
         inkscape:randomized="0"
         d="M 71.430381,24.581306 44.171361,14.477162 20.394256,31.204304 21.580368,2.1570828 -1.6756198,-15.287316 l 27.9920778,-7.848026 9.404114,-27.508374 16.113944,24.196874 29.06805,0.443289 -18.033113,22.8025173 z"
         inkscape:transform-center-x="-5.2108431"
         inkscape:transform-center-y="7.730979"
         transform="matrix(0.16301327,0,0,0.16301327,91.328948,176.7557)" /><path
         sodipodi:type="star"
         style="fill:#ffffff;fill-opacity:1;stroke:none;stroke-width:41.1009;stroke-linecap:round;stroke-linejoin:round;stroke-dasharray:none;stroke-opacity:1"
         id="path5885-5-7-9"
         inkscape:flatsided="false"
         sodipodi:sides="5"
         sodipodi:cx="41.354431"
         sodipodi:cy="-7.229795"
         sodipodi:r1="43.77795"
         sodipodi:r2="21.888971"
         sodipodi:arg1="0.8134282"
         sodipodi:arg2="1.4417467"
         inkscape:rounded="0"
         inkscape:randomized="0"
         d="M 71.430381,24.581306 44.171361,14.477162 20.394256,31.204304 21.580368,2.1570828 -1.6756198,-15.287316 l 27.9920778,-7.848026 9.404114,-27.508374 16.113944,24.196874 29.06805,0.443289 -18.033113,22.8025173 z"
         inkscape:transform-center-x="-17.646083"
         inkscape:transform-center-y="20.269109"
         transform="matrix(0.16301327,0,0,0.16301327,103.31648,189.29383)" /></g><path
       style="fill:none;fill-opacity:1;stroke:#000000;stroke-width:6.7;stroke-linecap:round;stroke-linejoin:round;stroke-dasharray:none;stroke-opacity:1"
       d="M 46.559877,166.27077 140.83641,73.729379 c 0,0 19.80963,-19.086659 47.42746,-19.231255 16.28721,-0.08527 28.10896,9.082811 27.90701,22.412366 -0.43379,28.62999 -16.19474,47.86125 -16.19474,47.86125 l -97.89144,97.16845 z"
       id="path356-5"
       sodipodi:nodetypes="ccssccc" /><path
       style="fill:none;stroke:#000000;stroke-width:6.69999;stroke-linecap:round;stroke-linejoin:round;stroke-dasharray:none;stroke-opacity:1"
       d="m 140.83642,73.729378 28.60333,26.676002 26.14945,28.72089"
       id="path1064"
       sodipodi:nodetypes="ccc" /><path
       style="fill:none;stroke:#000000;stroke-width:6.69999;stroke-linecap:round;stroke-linejoin:round;stroke-dasharray:none;stroke-opacity:1"
       d="m 64.263748,148.89274 c 10.198558,9.30122 20.372239,18.37846 29.399692,27.15349 15.36077,14.93127 25.78834,28.45972 25.78834,28.45972"
       id="path1062"
       sodipodi:nodetypes="csc" /></g></svg>
