<?xml version="1.0" encoding="UTF-8" standalone="no"?>
<!-- Created with Inkscape (http://www.inkscape.org/) -->

<svg
   width="1024"
   height="1024"
   viewBox="0 0 270.93333 270.93333"
   version="1.1"
   id="svg5"
   sodipodi:docname="essentialOils.svg"
   inkscape:version="1.2.2 (732a01da63, 2022-12-09)"
   inkscape:export-filename="essentialOils.png"
   inkscape:export-xdpi="96"
   inkscape:export-ydpi="96"
   xmlns:inkscape="http://www.inkscape.org/namespaces/inkscape"
   xmlns:sodipodi="http://sodipodi.sourceforge.net/DTD/sodipodi-0.dtd"
   xmlns="http://www.w3.org/2000/svg"
   xmlns:svg="http://www.w3.org/2000/svg">
  <sodipodi:namedview
     id="namedview7"
     pagecolor="#ffffff"
     bordercolor="#000000"
     borderopacity="0.25"
     inkscape:showpageshadow="2"
     inkscape:pageopacity="0.0"
     inkscape:pagecheckerboard="0"
     inkscape:deskcolor="#d1d1d1"
     inkscape:document-units="mm"
     showgrid="false"
     inkscape:zoom="0.64693624"
     inkscape:cx="291.37338"
     inkscape:cy="431.26352"
     inkscape:window-width="2560"
     inkscape:window-height="1369"
     inkscape:window-x="2552"
     inkscape:window-y="-8"
     inkscape:window-maximized="1"
     inkscape:current-layer="layer1" />
  <defs
     id="defs2" />
  <g
     inkscape:label="Layer 1"
     inkscape:groupmode="layer"
     id="layer1">
    <path
       style="fill:#ced8dd;fill-opacity:1;stroke:none;stroke-width:2.9;stroke-linecap:round;stroke-linejoin:round;stroke-dasharray:none"
       d="M 27.68506,209.56415 67.444237,246.8846 241.10883,74.685676 199.65637,39.244477 Z"
       id="path1180" />
    <path
       id="path1180-1"
       style="fill:none;fill-opacity:1;stroke:none;stroke-width:2.9;stroke-linecap:round;stroke-linejoin:round;stroke-dasharray:none"
       d="m 107.13345,130.87879 -79.448387,78.68536 v 0 l 39.759171,37.32045 79.360886,-78.69111" />
    <path
       style="fill:#dc9622;fill-opacity:1;stroke:none;stroke-width:2.9;stroke-linecap:round;stroke-linejoin:round;stroke-dasharray:none"
       d="m 28.532992,209.26494 39.492859,37.0915 86.250679,-85.57131 -40.60582,-36.38081 -85.137718,84.86062"
       id="path1567" />
    <path
       id="path1510"
       style="fill:none;fill-opacity:1;stroke:none;stroke-width:2.9;stroke-linecap:round;stroke-linejoin:round;stroke-dasharray:none"
       d="M 146.80512,168.19349 241.1088,74.685679 199.65634,39.244481 107.13345,130.87879" />
    <path
       id="path1410"
       style="fill:#dc9622;fill-opacity:1;stroke:none;stroke-width:2.9;stroke-linecap:round;stroke-linejoin:round;stroke-dasharray:none"
       d="m 92.614422,145.59369 38.249368,38.25122 m 0,0 -62.256335,61.76596 M 29.114592,208.51935 92.614422,145.59369 M 68.607455,245.61087 a 27.094603,27.095689 0 0 1 -20.107607,8.93452 27.094603,27.095689 0 0 1 -27.094603,-27.09569 27.094603,27.095689 0 0 1 7.709347,-18.93035" />
    <path
       id="path426"
       style="fill:none;fill-opacity:1;stroke:#000000;stroke-width:2.9;stroke-linecap:round;stroke-linejoin:round;stroke-dasharray:none"
       d="M 240.52721,75.213842 68.025855,246.35644 M 28.532992,209.26494 199.35241,39.990052 m 0,0 a 27.094603,27.095689 0 0 1 20.36001,-9.21796 27.094603,27.095689 0 0 1 27.09461,27.095689 v 0 a 27.094603,27.095689 0 0 1 -6.27982,17.346061 M 68.025855,246.35644 a 27.094603,27.095689 0 0 1 -20.107607,8.93452 27.094603,27.095689 0 0 1 -27.094603,-27.09569 27.094603,27.095689 0 0 1 7.709347,-18.93035" />
    <ellipse
       style="display:inline;fill:#ced8dd;fill-opacity:1;stroke:#000000;stroke-width:2.9;stroke-linecap:round;stroke-linejoin:round;stroke-dasharray:none"
       id="path236"
       cx="-123.25852"
       cy="-196.53146"
       rx="24.973253"
       ry="31.512346"
       transform="matrix(-0.70709261,0.70712095,-0.70709261,-0.70712095,0,0)" />
  </g>
</svg>
