<?xml version="1.0" encoding="UTF-8" standalone="no"?>
<!-- Created with Inkscape (http://www.inkscape.org/) -->

<svg
   width="1024"
   height="1024"
   viewBox="0 0 270.93333 270.93333"
   version="1.1"
   id="svg4042"
   inkscape:version="1.2.2 (732a01da63, 2022-12-09)"
   sodipodi:docname="PS_Tablet.svg"
   inkscape:export-filename="PS_Tablet.png"
   inkscape:export-xdpi="96"
   inkscape:export-ydpi="96"
   xml:space="preserve"
   xmlns:inkscape="http://www.inkscape.org/namespaces/inkscape"
   xmlns:sodipodi="http://sodipodi.sourceforge.net/DTD/sodipodi-0.dtd"
   xmlns:xlink="http://www.w3.org/1999/xlink"
   xmlns="http://www.w3.org/2000/svg"
   xmlns:svg="http://www.w3.org/2000/svg"><sodipodi:namedview
     id="namedview4044"
     pagecolor="#ffffff"
     bordercolor="#000000"
     borderopacity="0.25"
     inkscape:showpageshadow="2"
     inkscape:pageopacity="0.0"
     inkscape:pagecheckerboard="0"
     inkscape:deskcolor="#d1d1d1"
     inkscape:document-units="mm"
     showgrid="false"
     inkscape:zoom="0.45254834"
     inkscape:cx="553.53203"
     inkscape:cy="150.26019"
     inkscape:window-width="2560"
     inkscape:window-height="1369"
     inkscape:window-x="2552"
     inkscape:window-y="-8"
     inkscape:window-maximized="1"
     inkscape:current-layer="layer1" /><defs
     id="defs4039"><linearGradient
       inkscape:collect="always"
       id="linearGradient1845"><stop
         style="stop-color:#ffffff;stop-opacity:1;"
         offset="0"
         id="stop1841" /><stop
         style="stop-color:#ffffff;stop-opacity:0.3882353;"
         offset="1"
         id="stop1843" /></linearGradient><linearGradient
       inkscape:collect="always"
       id="linearGradient1837"><stop
         style="stop-color:#ffffff;stop-opacity:1;"
         offset="0"
         id="stop1833" /><stop
         style="stop-color:#ffffff;stop-opacity:0.3882353;"
         offset="1"
         id="stop1835" /></linearGradient><linearGradient
       inkscape:collect="always"
       id="linearGradient1829"><stop
         style="stop-color:#ffffff;stop-opacity:1;"
         offset="0"
         id="stop1825" /><stop
         style="stop-color:#ffffff;stop-opacity:0.38976374;"
         offset="1"
         id="stop1827" /></linearGradient><linearGradient
       inkscape:collect="always"
       xlink:href="#linearGradient1829"
       id="linearGradient1831"
       x1="53.314023"
       y1="118.85784"
       x2="199.43964"
       y2="118.85784"
       gradientUnits="userSpaceOnUse"
       gradientTransform="translate(9.0169106)" /><linearGradient
       inkscape:collect="always"
       xlink:href="#linearGradient1837"
       id="linearGradient1839"
       x1="53.314023"
       y1="92.975169"
       x2="199.43964"
       y2="92.975169"
       gradientUnits="userSpaceOnUse"
       gradientTransform="translate(9.0169106)" /><linearGradient
       inkscape:collect="always"
       xlink:href="#linearGradient1845"
       id="linearGradient1847"
       x1="53.459855"
       y1="145.37419"
       x2="199.58549"
       y2="145.37419"
       gradientUnits="userSpaceOnUse"
       gradientTransform="translate(9.0169106)" /></defs><g
     inkscape:label="Layer 1"
     inkscape:groupmode="layer"
     id="layer1"><rect
       style="fill:#000000;fill-opacity:1;stroke:#000000;stroke-width:5;stroke-linecap:round;stroke-linejoin:round;stroke-dasharray:none"
       id="rect4578"
       width="141.12561"
       height="201.8559"
       x="64.830933"
       y="36.148975" /><g
       style="display:block;stroke-width:0.231606"
       id="g2232"
       transform="matrix(1.1423852,0,0,1.1423852,161.076,74.466125)"
       inkscape:label="YT"><g
         id="g2216"
         style="stroke-width:0.231606"><path
           d="M 27.9727,3.12324 C 27.6435,1.89323 26.6768,0.926623 25.4468,0.597366 23.2197,2.24288e-7 14.285,0 14.285,0 14.285,0 5.35042,2.24288e-7 3.12323,0.597366 1.89323,0.926623 0.926623,1.89323 0.597366,3.12324 2.24288e-7,5.35042 0,10 0,10 c 0,0 2.24288e-7,4.6496 0.597366,6.8768 0.329257,1.23 1.295864,2.1966 2.525864,2.5258 C 5.35042,20 14.285,20 14.285,20 c 0,0 8.9347,0 11.1618,-0.5974 1.23,-0.3292 2.1967,-1.2958 2.5259,-2.5258 C 28.5701,14.6496 28.5701,10 28.5701,10 c 0,0 -0.0024,-4.64958 -0.5974,-6.87676 z"
           fill="#ff0000"
           id="path2212"
           style="stroke-width:0.0423228" /><path
           d="m 11.4253,14.2854 7.4224,-4.285 -7.4224,-4.28507 z"
           fill="#ffffff"
           id="path2214"
           style="stroke-width:0.0423228" /></g></g><g
       id="g2969"
       transform="matrix(0.29196738,0,0,0.29196738,120.97133,64.928431)"
       style="stroke-width:0.906209"
       inkscape:label="Twitch"><g
         transform="matrix(1.3333333,0,0,-1.3333333,101.39333,67.589332)"
         id="g3365"
         style="stroke-width:0.906209">
      <path
   id="path3367"
   style="fill:#6441a5;fill-opacity:1;fill-rule:evenodd;stroke:none;stroke-width:0.906209"
   d="m 0,0 -13.652,-13.651 h -21.445 l -11.699,-11.697 v 11.697 H -64.344 V 42.893 H 0 Z m -72.146,50.692 -3.899,-15.599 v -70.19 h 17.55 v -9.751 h 9.746 l 9.752,9.751 h 15.596 L 7.795,-3.905 v 54.597 z" />
    </g><path
         id="path3369"
         style="fill:#6441a5;fill-opacity:1;fill-rule:evenodd;stroke:none;stroke-width:1.20828"
         d="m 44.197331,62.394266 h 10.39867 V 31.192933 h -10.39867 z m 28.59467,0 h 10.39866 V 31.192933 h -10.39866 z" /></g><g
       style="clip-rule:evenodd;fill-rule:evenodd;stroke-width:2588.75;image-rendering:optimizeQuality;shape-rendering:geometricPrecision;text-rendering:geometricPrecision"
       id="g3723"
       transform="matrix(1.0220531e-4,0,0,1.0220531e-4,83.480173,68.856155)"
       inkscape:label="TikTok"><path
         d="m 204958,0 c 5369,45832 32829,78170 77253,81022 v 43471 l -287,27 V 87593 C 237500,84743 211959,57410 206591,11578 l -47060,-1 v 192819 c 6791,86790 -60835,89368 -86703,56462 30342,18977 79608,6642 73766,-68039 V 0 h 58365 z M 78515,319644 C 51924,314173 27745,298286 13546,275056 -20950,218619 10145,126638 110197,117172 v 54345 l -164,27 V 130771 C 17274,145544 7961,245185 33650,286633 c 9906,15984 26169,27227 44864,33011 z"
         fill="#26f4ee"
         id="path3708"
         style="stroke-width:5552.34" /><path
         d="m 218434,11587 c 3505,29920 15609,55386 35948,70259 C 226860,71244 210731,46912 206591,11584 Z m 63489,82463 c 3786,804 7734,1348 11844,1611 v 51530 c -25770,2537 -48321,-5946 -74600,-21749 l 4034,88251 c 0,28460 106,41467 -15166,67648 -34260,58734 -95927,63376 -137628,35401 54529,22502 137077,-4810 136916,-103049 v -96320 c 26279,15803 48830,24286 74600,21748 z m -171890,37247 c 5390,-1122 11048,-1985 16998,-2548 v 54345 c -21666,3569 -35427,10222 -41862,22528 -20267,38754 5827,69491 35017,74111 -33931,5638 -73721,-28750 -49999,-74111 6434,-12304 18180,-18959 39846,-22528 z M 174512,11578 h 1808 z"
         fill="#fb2c53"
         id="path3710"
         style="stroke-width:5552.34" /><path
         d="m 206590,11578 c 5369,45832 30910,73164 75333,76015 v 51528 c -25770,2539 -48321,-5945 -74600,-21748 v 96320 C 207529,339410 72288,348976 33650,286632 7962,245183 17274,145543 110033,130770 v 52323 c -21666,3569 -33412,10224 -39846,22528 -39762,76035 98926,121273 89342,-1225 V 11577 l 47060,1 z"
         id="path3712"
         style="stroke-width:2588.75" /></g><rect
       style="fill:#717171;fill-opacity:0.53170735;stroke:none;stroke-width:2.89999;stroke-linecap:round;stroke-linejoin:round;stroke-opacity:1"
       id="rect4578-0"
       width="122.94593"
       height="168.20488"
       x="73.920776"
       y="49.162609" /><path
       style="fill:url(#linearGradient1831);fill-opacity:1;stroke:none;stroke-width:6.00001;stroke-linecap:round;stroke-linejoin:round"
       d="M 208.45655,85.889977 62.330934,120.59299 V 151.8257 L 208.45655,117.12269 V 85.889977"
       id="path376" /><path
       style="fill:url(#linearGradient1839);fill-opacity:1;stroke:none;stroke-width:6.00001;stroke-linecap:round;stroke-linejoin:round"
       d="m 62.330934,115.67672 v -10.7001 L 208.45655,70.273618 V 80.973712 L 62.330934,115.67672"
       id="path1052" /><path
       style="fill:url(#linearGradient1847);fill-opacity:1;stroke:none;stroke-width:6.00001;stroke-linecap:round;stroke-linejoin:round"
       d="m 62.476766,168.07574 v -10.7001 l 146.125634,-34.703 v 10.70009 L 62.476766,168.07574"
       id="path1052-5" /><rect
       style="fill:#ffffff;fill-opacity:0.700342;stroke:none;stroke-width:6.00001;stroke-linecap:round;stroke-linejoin:round"
       id="rect4180"
       width="122.94592"
       height="7.268055"
       x="73.920776"
       y="49.162609" /><circle
       style="fill:#ffffff;fill-opacity:0.700342;stroke:none;stroke-width:6.00001;stroke-linecap:round;stroke-linejoin:round"
       id="path4234"
       cx="135.46666"
       cy="228.24643"
       r="5.0042257" /></g></svg>
