<?xml version="1.0" encoding="UTF-8" standalone="no"?>
<!-- Created with Inkscape (http://www.inkscape.org/) -->

<svg
   width="1024"
   height="1024"
   viewBox="0 0 270.93333 270.93333"
   version="1.1"
   id="svg4042"
   inkscape:version="1.2.2 (732a01da63, 2022-12-09)"
   sodipodi:docname="PS_Tablet.svg"
   inkscape:export-filename="PS_Tablet.png"
   inkscape:export-xdpi="96"
   inkscape:export-ydpi="96"
   xml:space="preserve"
   xmlns:inkscape="http://www.inkscape.org/namespaces/inkscape"
   xmlns:sodipodi="http://sodipodi.sourceforge.net/DTD/sodipodi-0.dtd"
   xmlns:xlink="http://www.w3.org/1999/xlink"
   xmlns="http://www.w3.org/2000/svg"
   xmlns:svg="http://www.w3.org/2000/svg"><sodipodi:namedview
     id="namedview4044"
     pagecolor="#ffffff"
     bordercolor="#000000"
     borderopacity="0.25"
     inkscape:showpageshadow="2"
     inkscape:pageopacity="0.0"
     inkscape:pagecheckerboard="0"
     inkscape:deskcolor="#d1d1d1"
     inkscape:document-units="mm"
     showgrid="false"
     inkscape:zoom="0.90509668"
     inkscape:cx="464.59125"
     inkscape:cy="354.65824"
     inkscape:window-width="2560"
     inkscape:window-height="1369"
     inkscape:window-x="2552"
     inkscape:window-y="-8"
     inkscape:window-maximized="1"
     inkscape:current-layer="layer1" /><defs
     id="defs4039"><linearGradient
       inkscape:collect="always"
       id="linearGradient11306"><stop
         style="stop-color:#ff0050;stop-opacity:1;"
         offset="0"
         id="stop11302" /><stop
         style="stop-color:#00f2ea;stop-opacity:1;"
         offset="0.52425873"
         id="stop11310" /><stop
         style="stop-color:#000000;stop-opacity:1;"
         offset="1"
         id="stop11304" /></linearGradient><linearGradient
       inkscape:collect="always"
       id="linearGradient1720"><stop
         style="stop-color:#405de6;stop-opacity:1;"
         offset="0"
         id="stop1716" /><stop
         style="stop-color:#5b51d8;stop-opacity:1;"
         offset="0.0001"
         id="stop2450" /><stop
         style="stop-color:#833ab4;stop-opacity:1;"
         offset="0.26145554"
         id="stop3178" /><stop
         style="stop-color:#c13584;stop-opacity:1;"
         offset="0.39218327"
         id="stop3906" /><stop
         style="stop-color:#e1306c;stop-opacity:1;"
         offset="0.52964962"
         id="stop4634" /><stop
         style="stop-color:#fd1d1d;stop-opacity:1;"
         offset="0.61725068"
         id="stop5362" /><stop
         style="stop-color:#f56040;stop-opacity:1;"
         offset="0.70215631"
         id="stop6090" /><stop
         style="stop-color:#fcaf45;stop-opacity:1;"
         offset="0.84770888"
         id="stop7546" /><stop
         style="stop-color:#ffdc80;stop-opacity:1;"
         offset="1"
         id="stop1718" /></linearGradient><linearGradient
       inkscape:collect="always"
       id="linearGradient4917"><stop
         style="stop-color:#ffffff;stop-opacity:0.28472221;"
         offset="0"
         id="stop4913" /><stop
         style="stop-color:#ffffff;stop-opacity:0.76851851;"
         offset="1"
         id="stop4915" /></linearGradient><linearGradient
       inkscape:collect="always"
       id="linearGradient4039"><stop
         style="stop-color:#ffffff;stop-opacity:0.74537039;"
         offset="0"
         id="stop4035" /><stop
         style="stop-color:#ffffff;stop-opacity:0.02546296;"
         offset="1"
         id="stop4037" /></linearGradient><linearGradient
       inkscape:collect="always"
       id="linearGradient4031"><stop
         style="stop-color:#717171;stop-opacity:0;"
         offset="0"
         id="stop4027" /><stop
         style="stop-color:#717171;stop-opacity:1;"
         offset="1"
         id="stop4029" /></linearGradient><linearGradient
       inkscape:collect="always"
       xlink:href="#linearGradient4031"
       id="linearGradient4033"
       x1="140.47089"
       y1="228.24643"
       x2="118.22951"
       y2="106.74148"
       gradientUnits="userSpaceOnUse" /><linearGradient
       inkscape:collect="always"
       xlink:href="#linearGradient4039"
       id="linearGradient4041"
       x1="62.330933"
       y1="33.648975"
       x2="174.1281"
       y2="179.83398"
       gradientUnits="userSpaceOnUse" /><linearGradient
       inkscape:collect="always"
       xlink:href="#linearGradient4917"
       id="linearGradient4899"
       x1="208.95654"
       y1="241.00487"
       x2="98.975021"
       y2="97.313828"
       gradientUnits="userSpaceOnUse" /><clipPath
       clipPathUnits="userSpaceOnUse"
       id="clipPath6483"><rect
         style="fill:#000000;fill-opacity:1;stroke:none;stroke-width:0.999998;stroke-linecap:round;stroke-linejoin:round;stroke-dasharray:none;stroke-opacity:1"
         id="rect6485"
         width="146.62561"
         height="207.3559"
         x="62.330933"
         y="33.648975"
         rx="2.5"
         ry="2.5" /></clipPath><linearGradient
       inkscape:collect="always"
       xlink:href="#linearGradient1720"
       id="linearGradient1722"
       x1="141.93748"
       y1="97.815643"
       x2="121.11242"
       y2="119.23764"
       gradientUnits="userSpaceOnUse" /><linearGradient
       inkscape:collect="always"
       xlink:href="#linearGradient11306"
       id="linearGradient11308"
       x1="171.64589"
       y1="102.5812"
       x2="181.29338"
       y2="109.61083"
       gradientUnits="userSpaceOnUse" /></defs><g
     inkscape:label="Layer 1"
     inkscape:groupmode="layer"
     id="layer1"><rect
       style="fill:#000000;fill-opacity:1;stroke:#000000;stroke-width:5;stroke-linecap:round;stroke-linejoin:round;stroke-dasharray:none"
       id="rect4578"
       width="141.12561"
       height="201.8559"
       x="64.830933"
       y="36.148975" /><rect
       style="fill:#717171;fill-opacity:0.53170735;stroke:none;stroke-width:2.89999;stroke-linecap:round;stroke-linejoin:round;stroke-opacity:1"
       id="rect4578-0"
       width="122.94593"
       height="168.20488"
       x="73.920776"
       y="49.162609"
       inkscape:label="Screen" /><rect
       style="fill:#ffffff;fill-opacity:0.700342;stroke:none;stroke-width:6.00001;stroke-linecap:round;stroke-linejoin:round"
       id="rect4180"
       width="122.94592"
       height="7.268055"
       x="73.920776"
       y="49.162609"
       inkscape:label="StatusBar" /><circle
       style="fill:#ffffff;fill-opacity:0.700342;stroke:none;stroke-width:6.00001;stroke-linecap:round;stroke-linejoin:round"
       id="path4234"
       cx="135.46666"
       cy="228.24643"
       r="5.0042257"
       inkscape:label="Button" /><g
       id="g13499"
       inkscape:label="Logos"><path
         d="m 121.74072,63.763833 c 0,-1.88262 1.53063,-3.41325 3.41326,-3.41325 h 20.47952 c 1.88262,0 3.41325,1.53063 3.41325,3.41325 v 17.06627 c 0,1.88263 -1.53063,3.41326 -3.41325,3.41326 h -20.47952 c -1.88263,0 -3.41326,-1.53063 -3.41326,-3.41326 z m 17.26893,5.67987 c -0.23999,-0.35199 -0.63465,-0.55999 -1.05597,-0.55999 -0.42132,0 -0.82132,0.208 -1.05598,0.55999 l -4.63989,6.80518 -1.4133,-1.7653 c -0.24533,-0.30399 -0.61332,-0.47999 -0.99731,-0.47999 -0.38399,0 -0.75732,0.176 -0.99731,0.47999 l -3.41325,4.26657 c -0.30933,0.38399 -0.368,0.91198 -0.15467,1.35464 0.21333,0.44265 0.66132,0.72531 1.15198,0.72531 h 5.11988 1.70662 11.09308 c 0.47465,0 0.91198,-0.26132 1.13064,-0.68265 0.21866,-0.42132 0.192,-0.92798 -0.0747,-1.3173 z m -11.29573,-0.55999 a 2.5599407,2.5599407 0 1 0 0,-5.11988 2.5599407,2.5599407 0 1 0 0,5.11988 z"
         id="path274"
         style="stroke-width:0.264583;fill:#fffc00;fill-opacity:1" /><path
         d="m 95.882945,106.74148 a 5.973195,5.973195 0 1 0 0,-11.946392 5.973195,5.973195 0 1 0 0,11.946392 z m -2.132618,2.23995 c -4.596559,0 -8.320474,3.72391 -8.320474,8.32047 0,0.76531 0.620652,1.38597 1.385969,1.38597 h 18.134248 c 0.76531,0 1.38596,-0.62066 1.38596,-1.38597 0,-4.59656 -3.72391,-8.32047 -8.320468,-8.32047 z"
         id="path337"
         style="stroke-width:0.264584;fill:#4267b2;fill-opacity:1;stroke:#4267b2;stroke-opacity:1" /><path
         d="m 188.55754,71.443688 c 0,6.12749 -6.1115,11.09242 -13.65222,11.09242 -1.97851,0 -3.85569,-0.34131 -5.55155,-0.95459 -0.63462,0.46397 -1.6692,1.09858 -2.89577,1.63187 -1.27989,0.55462 -2.8211,1.02924 -4.35164,1.02924 -0.34664,0 -0.65595,-0.20797 -0.78927,-0.52795 -0.13332,-0.31996 -0.0587,-0.68261 0.18132,-0.92792 v 0 0 0 0 l 0.016,-0.016 c 0.016,-0.016 0.0373,-0.0374 0.0693,-0.0746 0.0587,-0.064 0.14932,-0.16532 0.26131,-0.30397 0.21865,-0.26665 0.51196,-0.66127 0.8106,-1.15191 0.53329,-0.88527 1.03992,-2.04783 1.14124,-3.35439 -1.59987,-1.81318 -2.54379,-4.037 -2.54379,-6.44213 0,-6.12751 6.1115,-11.09244 13.65222,-11.09244 7.54072,0 13.65222,4.96493 13.65222,11.09244 z"
         id="path346"
         style="stroke-width:0.264583;fill:#1da1f2;fill-opacity:1" /><path
         d="m 129.43017,96.075118 -0.58018,1.74053 h -4.16724 c -1.96926,0 -3.57033,1.60107 -3.57033,3.570332 v 14.28133 c 0,1.96926 1.60107,3.57033 3.57033,3.57033 h 21.42198 c 1.96926,0 3.57034,-1.60107 3.57034,-3.57033 v -14.28133 c 0,-1.969262 -1.60108,-3.570333 -3.57034,-3.570333 h -4.16724 l -0.58018,-1.74053 c -0.36261,-1.09342 -1.3835,-1.8298 -2.53828,-1.8298 h -6.85058 c -1.15477,0 -2.17567,0.73638 -2.53828,1.829801 z m 5.96357,7.096032 a 5.3554993,5.3554993 0 1 1 0,10.71099 5.3554993,5.3554993 0 1 1 0,-10.71099 z"
         id="path355"
         style="stroke-width:0.264583;stroke:none;fill-opacity:1;fill:url(#linearGradient1722)" /><path
         d="m 82.229926,66.228963 c 0,-1.67344 1.360561,-3.034 3.034004,-3.034 h 12.136014 c 1.673444,0 3.034006,1.36056 3.034006,3.034 v 12.13601 c 0,1.67345 -1.360562,3.03401 -3.034006,3.03401 H 85.26393 c -1.673443,0 -3.034004,-1.36056 -3.034004,-3.03401 z m 26.504864,-1.33685 c 0.49303,0.26547 0.80117,0.77746 0.80117,1.33685 v 12.13601 c 0,0.5594 -0.30814,1.07139 -0.80117,1.33687 -0.49302,0.26547 -1.09034,0.23703 -1.55967,-0.0759 l -4.551,-3.034 -0.67317,-0.45036 v -0.81064 -6.06801 -0.81065 l 0.67317,-0.45036 4.551,-3.03401 c 0.46459,-0.30814 1.06191,-0.34132 1.55967,-0.0758 z"
         id="path364"
         style="stroke-opacity:1;stroke-width:0.264582;stroke:#5FF0000;fill-opacity:1;fill:#FF0000;" /><path
         d="m 186.60573,94.828242 c 0.35447,0.287414 0.56046,0.723319 0.56046,1.183182 v 6.897906 c 0,1.2694 -1.37479,2.2993 -3.06573,2.2993 -1.69095,0 -3.06574,-1.0299 -3.06574,-2.2993 0,-1.26941 1.37479,-2.2993 3.06574,-2.2993 v -2.730419 l -4.59862,0.919713 v 5.642866 c 0,1.26942 -1.37479,2.29931 -3.06574,2.29931 -1.69094,0 -3.06573,-1.02989 -3.06573,-2.29931 0,-1.2694 1.37479,-2.2993 3.06573,-2.2993 v -4.598598 c 0,-0.732909 0.51735,-1.360431 1.23109,-1.504121 l 7.66434,-1.532879 c 0.45028,-0.09101 0.91494,0.02878 1.2742,0.316149 z m -20.38715,14.212558 0.56524,-0.85266 c 0.28263,-0.42632 0.76164,-0.68021 1.2742,-0.68021 h 2.95557 c 0.51254,0 0.99157,0.25389 1.27419,0.68021 l 0.57004,0.85266 h 1.27898 c 1.26941,0 2.2993,1.0299 2.2993,2.2993 v 5.36506 c 0,1.26939 -1.02989,2.29928 -2.2993,2.29928 h -9.19721 c -1.26941,0 -2.2993,-1.02989 -2.2993,-2.29928 v -5.36506 c 0,-1.2694 1.02989,-2.2993 2.2993,-2.2993 z m 5.61892,4.98181 a 2.299305,2.299305 0 1 0 -4.59861,0 2.299305,2.299305 0 1 0 4.59861,0 z m 13.73355,-6.2129 -1.83945,4.29683 h 2.66816 c 0.32093,0 0.60356,0.1964 0.71853,0.49817 0.11501,0.3018 0.0287,0.63711 -0.21078,0.84788 l -6.13147,5.36504 c -0.26825,0.23472 -0.66584,0.25388 -0.95325,0.0431 -0.28741,-0.21076 -0.3928,-0.59397 -0.25388,-0.91971 l 1.83465,-4.30162 h -2.66815 c -0.32095,0 -0.60357,-0.19639 -0.71854,-0.49818 -0.11501,-0.30178 -0.0287,-0.63709 0.21078,-0.84786 l 6.13147,-5.36505 c 0.26826,-0.23472 0.66584,-0.25387 0.95325,-0.0431 0.28742,0.21077 0.3928,0.59399 0.25388,0.91972 z m -16.23883,-2.8358 c -0.31137,0.31136 -0.81433,0.31136 -1.10175,0 l -4.63693,-4.78542 c -1.34126,-1.389166 -1.2694,-3.683678 0.23953,-4.977037 1.29334,-1.125699 3.27649,-0.910135 4.47404,0.311361 l 0.47902,0.502978 0.45507,-0.502978 c 1.19756,-1.221496 3.15676,-1.43706 4.49803,-0.311361 1.48496,1.293359 1.55681,3.587871 0.21555,4.977037 l -4.61777,4.78542 z"
         id="path373"
         style="stroke-width:0.264583;fill-opacity:1;fill:url(#linearGradient11308)" /></g><g
       id="g6404"
       inkscape:label="Glare"
       clip-path="url(#clipPath6483)"><path
         style="fill:url(#linearGradient4041);fill-opacity:1;stroke:none;stroke-width:1;stroke-linecap:round;stroke-linejoin:round;stroke-dasharray:none;stroke-opacity:1"
         d="M 174.12809,33.648975 H 62.330932 V 179.83398 Z"
         id="path1975" /><path
         style="fill:url(#linearGradient4033);fill-opacity:1;stroke:none;stroke-width:1;stroke-linecap:round;stroke-linejoin:round;stroke-dasharray:none;stroke-opacity:0.53333336"
         d="M 83.480155,240.50487 H 98.97502 L 208.45654,97.313828 V 78.590634 Z"
         id="path1977" /><path
         style="fill:url(#linearGradient4899);fill-opacity:1;stroke:none;stroke-width:1;stroke-linecap:round;stroke-linejoin:round;stroke-dasharray:none;stroke-opacity:1"
         d="m 98.97502,240.50487 109.48152,-143.191044 0.5,143.691044 z"
         id="path1979" /></g></g></svg>
